<?xml version="1.0" encoding="UTF-8"?>
<svg width="37px" height="39px" viewBox="0 0 37 39" version="1.1" xmlns="http://www.w3.org/2000/svg" xmlns:xlink="http://www.w3.org/1999/xlink">
    <!-- Generator: sketchtool 41.2 (35397) - http://www.bohemiancoding.com/sketch -->
    <title>A3AEEE98-6097-4ABA-AB0B-D948720602DE</title>
    <desc>Created with sketchtool.</desc>
    <defs>
        <filter x="-50%" y="-50%" width="200%" height="200%" filterUnits="objectBoundingBox" id="filter-1">
            <feOffset dx="0" dy="2" in="SourceAlpha" result="shadowOffsetOuter1"></feOffset>
            <feGaussianBlur stdDeviation="2" in="shadowOffsetOuter1" result="shadowBlurOuter1"></feGaussianBlur>
            <feColorMatrix values="0 0 0 0 0   0 0 0 0 0   0 0 0 0 0  0 0 0 0.5 0" type="matrix" in="shadowBlurOuter1" result="shadowMatrixOuter1"></feColorMatrix>
            <feMerge>
                <feMergeNode in="shadowMatrixOuter1"></feMergeNode>
                <feMergeNode in="SourceGraphic"></feMergeNode>
            </feMerge>
        </filter>
        <path d="M18.1560872,30.1342125 L23.5331716,30.1342125 C24.6479773,30.1342125 25.5515714,29.2183753 25.5515714,28.0884648 L25.5515714,4.86107756 C25.5515714,3.78589045 24.6916184,2.91428571 23.6308045,2.91428571 L18.0584543,2.91428571 C16.9976404,2.91428571 16.1376874,3.78589045 16.1376874,4.86107756 L16.1376874,28.0884648 C16.1376874,29.2183753 17.0412815,30.1342125 18.1560872,30.1342125 M0,28.0884648 L0,4.86107756 C0,3.78589045 0.859953038,2.91428571 1.92048718,2.91428571 L7.49311715,2.91428571 C8.55365129,2.91428571 9.41360433,3.78589045 9.41360433,4.86107756 L9.41360433,28.0884648 C9.41360433,29.2183753 8.51001022,30.1342125 7.39548422,30.1342125 L2.01812011,30.1342125 C0.903594116,30.1342125 0,29.2183753 0,28.0884648" id="path-2"></path>
        <mask id="mask-3" maskContentUnits="userSpaceOnUse" maskUnits="objectBoundingBox" x="-1.54463077" y="-1.54463077" width="28.640833" height="30.3091883">
            <rect x="-1.54463077" y="1.36965495" width="28.640833" height="30.3091883" fill="white"></rect>
            <use xlink:href="#path-2" fill="black"></use>
        </mask>
    </defs>
    <g id="presentation-order" stroke="none" stroke-width="1" fill="none" fill-rule="evenodd">
        <g id="0.4_featured_first_row_second_item_selected_clip_playback" transform="translate(-84.000000, -990.000000)">
            <g id="vpc" filter="url(#filter-1)" transform="translate(90.000000, 991.000000)">
                <g id="pause">
                    <use fill="#F2F2F2" fill-rule="evenodd" xlink:href="#path-2"></use>
                    <use stroke-opacity="0.15" stroke="#000000" mask="url(#mask-3)" stroke-width="3.08926154" stroke-linecap="round" stroke-linejoin="round" xlink:href="#path-2"></use>
                </g>
            </g>
        </g>
    </g>
</svg>